{
    "asset" : {
        "generator" : "Khronos glTF Blender I/O v3.3.32",
        "version" : "2.0"
    },
    "scene" : 0,
    "scenes" : [
        {
            "name" : "Scene",
            "nodes" : [
                4,
                9,
                14
            ]
        }
    ],
    "nodes" : [
        {
            "mesh" : 0,
            "name" : "Cube.001_\ufffd\ufffd\ufffd\ufffd\ufffd\ufffd\ufffd\ufffd\ufffd\ufffd\ufffd\ufffd\ufffd\ufffd \ufffd\ufffd\ufffd"
        },
        {
            "children" : [
                0
            ],
            "name" : "Cube.001",
            "rotation" : [
                -0.7071068286895752,
                0,
                0,
                0.7071067094802856
            ],
            "scale" : [
                11.556640625,
                5.316083908081055,
                16.341049194335938
            ],
            "translation" : [
                0,
                0.20560017228126526,
                0.7788709998130798
            ]
        },
        {
            "children" : [
                1
            ],
            "name" : "RootNode"
        },
        {
            "children" : [
                2
            ],
            "name" : "a3333f579cb04e9185f7eecfca1a0446.fbx",
            "rotation" : [
                0.7071068286895752,
                0,
                0,
                0.7071067094802856
            ]
        },
        {
            "children" : [
                3
            ],
            "name" : "Sketchfab_model",
            "rotation" : [
                -0.7071068286895752,
                0,
                0,
                0.7071067094802856
            ],
            "scale" : [
                0.032919034361839294,
                0.032919034361839294,
                0.032919034361839294
            ]
        },
        {
            "mesh" : 1,
            "name" : "Cube.001_\ufffd\ufffd\ufffd\ufffd\ufffd\ufffd\ufffd\ufffd\ufffd\ufffd\ufffd\ufffd\ufffd\ufffd_0.002"
        },
        {
            "children" : [
                5
            ],
            "name" : "Cube.002",
            "rotation" : [
                -0.7071068286895752,
                0,
                0,
                0.7071067094802856
            ],
            "scale" : [
                11.556640625,
                5.316083908081055,
                16.341049194335938
            ],
            "translation" : [
                0,
                0.20560017228126526,
                0.7788709998130798
            ]
        },
        {
            "children" : [
                6
            ],
            "name" : "RootNode.001"
        },
        {
            "children" : [
                7
            ],
            "name" : "a3333f579cb04e9185f7eecfca1a0446.fbx.001",
            "rotation" : [
                0.7071068286895752,
                0,
                0,
                0.7071067094802856
            ]
        },
        {
            "children" : [
                8
            ],
            "name" : "Sketchfab_model.001",
            "rotation" : [
                -0.7071068286895752,
                0,
                0,
                0.7071067094802856
            ],
            "scale" : [
                0.032919034361839294,
                0.032919034361839294,
                0.032919034361839294
            ]
        },
        {
            "mesh" : 2,
            "name" : "Cube.001_\ufffd\ufffd\ufffd\ufffd\ufffd\ufffd\ufffd\ufffd\ufffd\ufffd\ufffd\ufffd\ufffd\ufffd_0.003"
        },
        {
            "children" : [
                10
            ],
            "name" : "Cube.003",
            "rotation" : [
                -0.7071068286895752,
                0,
                0,
                0.7071067094802856
            ],
            "scale" : [
                11.556640625,
                5.316083908081055,
                16.341049194335938
            ],
            "translation" : [
                0,
                0.20560017228126526,
                0.7788709998130798
            ]
        },
        {
            "children" : [
                11
            ],
            "name" : "RootNode.002"
        },
        {
            "children" : [
                12
            ],
            "name" : "a3333f579cb04e9185f7eecfca1a0446.fbx.002",
            "rotation" : [
                0.7071068286895752,
                0,
                0,
                0.7071067094802856
            ]
        },
        {
            "children" : [
                13
            ],
            "name" : "Sketchfab_model.002",
            "rotation" : [
                -0.7071068286895752,
                0,
                0,
                0.7071067094802856
            ],
            "scale" : [
                0.032919034361839294,
                0.032919034361839294,
                0.032919034361839294
            ]
        }
    ],
    "materials" : [
        {
            "doubleSided" : true,
            "name" : "material",
            "pbrMetallicRoughness" : {
                "metallicFactor" : 0,
                "roughnessFactor" : 0.8656797409057617
            }
        },
        {
            "doubleSided" : true,
            "name" : "material_1.001",
            "pbrMetallicRoughness" : {
                "metallicFactor" : 0,
                "roughnessFactor" : 0
            }
        },
        {
            "doubleSided" : true,
            "name" : "material_2.001",
            "pbrMetallicRoughness" : {
                "roughnessFactor" : 0.5535714030265808
            }
        }
    ],
    "meshes" : [
        {
            "name" : "Cube.001_\ufffd\ufffd\ufffd\ufffd\ufffd\ufffd\ufffd\ufffd\ufffd\ufffd\ufffd\ufffd\ufffd\ufffd \ufffd\ufffd\ufffd",
            "primitives" : [
                {
                    "attributes" : {
                        "POSITION" : 0,
                        "NORMAL" : 1,
                        "TEXCOORD_0" : 2
                    },
                    "indices" : 3,
                    "material" : 0
                }
            ]
        },
        {
            "name" : "Cube.001_\ufffd\ufffd\ufffd\ufffd\ufffd\ufffd\ufffd\ufffd\ufffd\ufffd\ufffd\ufffd\ufffd\ufffd_0.002",
            "primitives" : [
                {
                    "attributes" : {
                        "POSITION" : 4,
                        "NORMAL" : 5,
                        "TEXCOORD_0" : 6
                    },
                    "indices" : 7,
                    "material" : 1
                }
            ]
        },
        {
            "name" : "Cube.001_\ufffd\ufffd\ufffd\ufffd\ufffd\ufffd\ufffd\ufffd\ufffd\ufffd\ufffd\ufffd\ufffd\ufffd_0.003",
            "primitives" : [
                {
                    "attributes" : {
                        "POSITION" : 8,
                        "NORMAL" : 9,
                        "TEXCOORD_0" : 10
                    },
                    "indices" : 11,
                    "material" : 2
                }
            ]
        }
    ],
    "accessors" : [
        {
            "bufferView" : 0,
            "componentType" : 5126,
            "count" : 29991,
            "max" : [
                1.0516444444656372,
                3.050013780593872,
                0.9161879420280457
            ],
            "min" : [
                -1.0594533681869507,
                -1.4790763854980469,
                -1.039250373840332
            ],
            "type" : "VEC3"
        },
        {
            "bufferView" : 1,
            "componentType" : 5126,
            "count" : 29991,
            "type" : "VEC3"
        },
        {
            "bufferView" : 2,
            "componentType" : 5126,
            "count" : 29991,
            "type" : "VEC2"
        },
        {
            "bufferView" : 3,
            "componentType" : 5123,
            "count" : 139200,
            "type" : "SCALAR"
        },
        {
            "bufferView" : 4,
            "componentType" : 5126,
            "count" : 23874,
            "max" : [
                1.2880287170410156,
                3.1063995361328125,
                1.0807358026504517
            ],
            "min" : [
                -1.2209378480911255,
                0.9146624803543091,
                -1.0755997896194458
            ],
            "type" : "VEC3"
        },
        {
            "bufferView" : 5,
            "componentType" : 5126,
            "count" : 23874,
            "type" : "VEC3"
        },
        {
            "bufferView" : 6,
            "componentType" : 5126,
            "count" : 23874,
            "type" : "VEC2"
        },
        {
            "bufferView" : 7,
            "componentType" : 5123,
            "count" : 120960,
            "type" : "SCALAR"
        },
        {
            "bufferView" : 8,
            "componentType" : 5126,
            "count" : 16969,
            "max" : [
                0.9635896682739258,
                3.097653388977051,
                -0.2002383917570114
            ],
            "min" : [
                -0.8958986401557922,
                -1.4087533950805664,
                -0.948037326335907
            ],
            "type" : "VEC3"
        },
        {
            "bufferView" : 9,
            "componentType" : 5126,
            "count" : 16969,
            "type" : "VEC3"
        },
        {
            "bufferView" : 10,
            "componentType" : 5126,
            "count" : 16969,
            "type" : "VEC2"
        },
        {
            "bufferView" : 11,
            "componentType" : 5123,
            "count" : 45312,
            "type" : "SCALAR"
        }
    ],
    "bufferViews" : [
        {
            "buffer" : 0,
            "byteLength" : 359892,
            "byteOffset" : 0,
            "target" : 34962
        },
        {
            "buffer" : 0,
            "byteLength" : 359892,
            "byteOffset" : 359892,
            "target" : 34962
        },
        {
            "buffer" : 0,
            "byteLength" : 239928,
            "byteOffset" : 719784,
            "target" : 34962
        },
        {
            "buffer" : 0,
            "byteLength" : 278400,
            "byteOffset" : 959712,
            "target" : 34963
        },
        {
            "buffer" : 0,
            "byteLength" : 286488,
            "byteOffset" : 1238112,
            "target" : 34962
        },
        {
            "buffer" : 0,
            "byteLength" : 286488,
            "byteOffset" : 1524600,
            "target" : 34962
        },
        {
            "buffer" : 0,
            "byteLength" : 190992,
            "byteOffset" : 1811088,
            "target" : 34962
        },
        {
            "buffer" : 0,
            "byteLength" : 241920,
            "byteOffset" : 2002080,
            "target" : 34963
        },
        {
            "buffer" : 0,
            "byteLength" : 203628,
            "byteOffset" : 2244000,
            "target" : 34962
        },
        {
            "buffer" : 0,
            "byteLength" : 203628,
            "byteOffset" : 2447628,
            "target" : 34962
        },
        {
            "buffer" : 0,
            "byteLength" : 135752,
            "byteOffset" : 2651256,
            "target" : 34962
        },
        {
            "buffer" : 0,
            "byteLength" : 90624,
            "byteOffset" : 2787008,
            "target" : 34963
        }
    ],
    "buffers" : [
        {
            "byteLength" : 2877632,
            "uri" : "data:application/octet-stream;base64,"
        }
    ]
}
