{
    "asset" : {
        "generator" : "Khronos glTF Blender I/O v3.3.32",
        "version" : "2.0"
    },
    "scene" : 0,
    "scenes" : [
        {
            "name" : "Scene",
            "nodes" : [
                4,
                15,
                34
            ]
        }
    ],
    "nodes" : [
        {
            "mesh" : 0,
            "name" : "Object_33",
            "rotation" : [
                -0.7133874893188477,
                0,
                0,
                0.7007699012756348
            ],
            "translation" : [
                0,
                0,
                -0.24458633363246918
            ]
        },
        {
            "children" : [
                0
            ],
            "name" : "shoe:group1polySurface12polySurface34_20"
        },
        {
            "children" : [
                1
            ],
            "name" : "g shoe:group1polySurface12polySurface34_19"
        },
        {
            "children" : [
                2
            ],
            "name" : "shoe02.obj_0",
            "scale" : [
                173.89498901367188,
                173.89498901367188,
                173.89498901367188
            ],
            "translation" : [
                7.4303741455078125,
                74.4936294555664,
                -0.2728118896484375
            ]
        },
        {
            "children" : [
                3
            ],
            "name" : "GLTF_SceneRootNode",
            "rotation" : [
                0.7071068286895752,
                0,
                0,
                0.7071067094802856
            ]
        },
        {
            "mesh" : 1,
            "name" : "Object_18.001",
            "rotation" : [
                -0.7133874893188477,
                0,
                0,
                0.7007699012756348
            ],
            "translation" : [
                0,
                0,
                -0.24458633363246918
            ]
        },
        {
            "children" : [
                5
            ],
            "name" : "shoe:group1polySurface22polySurface35shoe_left_10.001"
        },
        {
            "children" : [
                6
            ],
            "name" : "g shoe:group1polySurface22polySurface35shoe_left_9.001"
        },
        {
            "name" : "shoe:polySurface65_8.001"
        },
        {
            "children" : [
                8
            ],
            "name" : "g shoe:polySurface65_7.001"
        },
        {
            "name" : "shoe:shoe_leftgroup1polySurface13polySurface34_26.001"
        },
        {
            "children" : [
                10
            ],
            "name" : "g shoe:shoe_leftgroup1polySurface13polySurface34_25.001"
        },
        {
            "name" : "shoe:shoe_leftgroup1polySurface24polySurface36_22.001"
        },
        {
            "children" : [
                12
            ],
            "name" : "g shoe:shoe_leftgroup1polySurface24polySurface36_21.001"
        },
        {
            "children" : [
                7,
                9,
                11,
                13
            ],
            "name" : "shoe02.obj_0.001",
            "scale" : [
                173.89498901367188,
                173.89498901367188,
                173.89498901367188
            ],
            "translation" : [
                7.4303741455078125,
                74.4936294555664,
                -0.2728118896484375
            ]
        },
        {
            "children" : [
                14
            ],
            "name" : "GLTF_SceneRootNode.001",
            "rotation" : [
                0.7071068286895752,
                0,
                0,
                0.7071067094802856
            ]
        },
        {
            "name" : "shoe:shoe_leftpolySurface49polySurface59polySurface55_12.002"
        },
        {
            "children" : [
                16
            ],
            "name" : "g shoe:shoe_leftpolySurface49polySurface59polySurface55_11.002"
        },
        {
            "name" : "shoe:shoe_leftpolySurface49polySurface59polySurface56_14.002"
        },
        {
            "children" : [
                18
            ],
            "name" : "g shoe:shoe_leftpolySurface49polySurface59polySurface56_13.002"
        },
        {
            "name" : "shoe:shoe_leftpolySurface49polySurface59polySurface57_4.002"
        },
        {
            "children" : [
                20
            ],
            "name" : "g shoe:shoe_leftpolySurface49polySurface59polySurface57_3.002"
        },
        {
            "name" : "shoe:shoe_leftpolySurface49polySurface59polySurface59_6.002"
        },
        {
            "children" : [
                22
            ],
            "name" : "g shoe:shoe_leftpolySurface49polySurface59polySurface59_5.002"
        },
        {
            "name" : "shoe:shoe_leftpolySurface49polySurface59polySurface61_18.002"
        },
        {
            "children" : [
                24
            ],
            "name" : "g shoe:shoe_leftpolySurface49polySurface59polySurface61_17.002"
        },
        {
            "name" : "shoe:shoe_leftpolySurface60polySurface49polySurface59_2.002"
        },
        {
            "children" : [
                26
            ],
            "name" : "g shoe:shoe_leftpolySurface60polySurface49polySurface59_1.002"
        },
        {
            "mesh" : 2,
            "name" : "Object_39.002",
            "rotation" : [
                -0.7133874893188477,
                0,
                0,
                0.7007699012756348
            ],
            "translation" : [
                0,
                0,
                -0.24458633363246918
            ]
        },
        {
            "children" : [
                28
            ],
            "name" : "shoe:shoe_leftpolySurface7group1polySurface31_24.002"
        },
        {
            "children" : [
                29
            ],
            "name" : "g shoe:shoe_leftpolySurface7group1polySurface31_23.002"
        },
        {
            "name" : "shoe:shoe_leftpolySurface7group1polySurface32_16.002"
        },
        {
            "children" : [
                31
            ],
            "name" : "g shoe:shoe_leftpolySurface7group1polySurface32_15.002"
        },
        {
            "children" : [
                17,
                19,
                21,
                23,
                25,
                27,
                30,
                32
            ],
            "name" : "shoe02.obj_0.002",
            "scale" : [
                173.89498901367188,
                173.89498901367188,
                173.89498901367188
            ],
            "translation" : [
                7.4303741455078125,
                74.4936294555664,
                -0.2728118896484375
            ]
        },
        {
            "children" : [
                33
            ],
            "name" : "GLTF_SceneRootNode.002",
            "rotation" : [
                0.7071068286895752,
                0,
                0,
                0.7071067094802856
            ]
        }
    ],
    "materials" : [
        {
            "name" : "initialShadingGroup",
            "pbrMetallicRoughness" : {
                "baseColorFactor" : [
                    1,
                    0.9532601237297058,
                    0.9532601237297058,
                    1
                ]
            }
        },
        {
            "name" : "initialShadingGroup.001",
            "pbrMetallicRoughness" : {
                "baseColorFactor" : [
                    1,
                    0.9532601237297058,
                    0.9532601237297058,
                    1
                ]
            }
        },
        {
            "name" : "initialShadingGroup.002",
            "pbrMetallicRoughness" : {
                "baseColorFactor" : [
                    1,
                    0.9532601237297058,
                    0.9532601237297058,
                    1
                ]
            }
        }
    ],
    "meshes" : [
        {
            "name" : "Object_9",
            "primitives" : [
                {
                    "attributes" : {
                        "POSITION" : 0,
                        "NORMAL" : 1,
                        "TEXCOORD_0" : 2,
                        "TEXCOORD_1" : 3,
                        "TEXCOORD_2" : 4,
                        "TEXCOORD_3" : 5,
                        "TEXCOORD_4" : 6
                    },
                    "indices" : 7,
                    "material" : 0
                }
            ]
        },
        {
            "name" : "Object_4.001",
            "primitives" : [
                {
                    "attributes" : {
                        "POSITION" : 8,
                        "NORMAL" : 9,
                        "TEXCOORD_0" : 10,
                        "TEXCOORD_1" : 11,
                        "TEXCOORD_2" : 12,
                        "TEXCOORD_3" : 13,
                        "TEXCOORD_4" : 14
                    },
                    "indices" : 15,
                    "material" : 1
                }
            ]
        },
        {
            "name" : "Object_11.002",
            "primitives" : [
                {
                    "attributes" : {
                        "POSITION" : 16,
                        "NORMAL" : 17,
                        "TEXCOORD_0" : 18,
                        "TEXCOORD_1" : 19,
                        "TEXCOORD_2" : 20,
                        "TEXCOORD_3" : 21,
                        "TEXCOORD_4" : 22
                    },
                    "indices" : 23,
                    "material" : 2
                }
            ]
        }
    ],
    "accessors" : [
        {
            "bufferView" : 0,
            "componentType" : 5126,
            "count" : 6718,
            "max" : [
                0.31625866889953613,
                0.34504303336143494,
                0.19309522211551666
            ],
            "min" : [
                -0.3202730715274811,
                -0.29984739422798157,
                -0.9911432266235352
            ],
            "type" : "VEC3"
        },
        {
            "bufferView" : 1,
            "componentType" : 5126,
            "count" : 6718,
            "type" : "VEC3"
        },
        {
            "bufferView" : 2,
            "componentType" : 5126,
            "count" : 6718,
            "type" : "VEC2"
        },
        {
            "bufferView" : 3,
            "componentType" : 5126,
            "count" : 6718,
            "type" : "VEC2"
        },
        {
            "bufferView" : 4,
            "componentType" : 5126,
            "count" : 6718,
            "type" : "VEC2"
        },
        {
            "bufferView" : 5,
            "componentType" : 5126,
            "count" : 6718,
            "type" : "VEC2"
        },
        {
            "bufferView" : 6,
            "componentType" : 5126,
            "count" : 6718,
            "type" : "VEC2"
        },
        {
            "bufferView" : 7,
            "componentType" : 5123,
            "count" : 36738,
            "type" : "SCALAR"
        },
        {
            "bufferView" : 8,
            "componentType" : 5126,
            "count" : 2869,
            "max" : [
                0.35484758019447327,
                0.43249985575675964,
                0.9812427759170532
            ],
            "min" : [
                -0.35844576358795166,
                -0.3015653192996979,
                -0.9851512908935547
            ],
            "type" : "VEC3"
        },
        {
            "bufferView" : 9,
            "componentType" : 5126,
            "count" : 2869,
            "type" : "VEC3"
        },
        {
            "bufferView" : 10,
            "componentType" : 5126,
            "count" : 2869,
            "type" : "VEC2"
        },
        {
            "bufferView" : 11,
            "componentType" : 5126,
            "count" : 2869,
            "type" : "VEC2"
        },
        {
            "bufferView" : 12,
            "componentType" : 5126,
            "count" : 2869,
            "type" : "VEC2"
        },
        {
            "bufferView" : 13,
            "componentType" : 5126,
            "count" : 2869,
            "type" : "VEC2"
        },
        {
            "bufferView" : 14,
            "componentType" : 5126,
            "count" : 2869,
            "type" : "VEC2"
        },
        {
            "bufferView" : 15,
            "componentType" : 5123,
            "count" : 15144,
            "type" : "SCALAR"
        },
        {
            "bufferView" : 16,
            "componentType" : 5126,
            "count" : 5177,
            "max" : [
                0.3718477189540863,
                0.37496188282966614,
                1.0000001192092896
            ],
            "min" : [
                -0.3718476891517639,
                -0.42847177386283875,
                -0.9999999403953552
            ],
            "type" : "VEC3"
        },
        {
            "bufferView" : 17,
            "componentType" : 5126,
            "count" : 5177,
            "type" : "VEC3"
        },
        {
            "bufferView" : 18,
            "componentType" : 5126,
            "count" : 5177,
            "type" : "VEC2"
        },
        {
            "bufferView" : 19,
            "componentType" : 5126,
            "count" : 5177,
            "type" : "VEC2"
        },
        {
            "bufferView" : 20,
            "componentType" : 5126,
            "count" : 5177,
            "type" : "VEC2"
        },
        {
            "bufferView" : 21,
            "componentType" : 5126,
            "count" : 5177,
            "type" : "VEC2"
        },
        {
            "bufferView" : 22,
            "componentType" : 5126,
            "count" : 5177,
            "type" : "VEC2"
        },
        {
            "bufferView" : 23,
            "componentType" : 5123,
            "count" : 27222,
            "type" : "SCALAR"
        }
    ],
    "bufferViews" : [
        {
            "buffer" : 0,
            "byteLength" : 80616,
            "byteOffset" : 0,
            "target" : 34962
        },
        {
            "buffer" : 0,
            "byteLength" : 80616,
            "byteOffset" : 80616,
            "target" : 34962
        },
        {
            "buffer" : 0,
            "byteLength" : 53744,
            "byteOffset" : 161232,
            "target" : 34962
        },
        {
            "buffer" : 0,
            "byteLength" : 53744,
            "byteOffset" : 214976,
            "target" : 34962
        },
        {
            "buffer" : 0,
            "byteLength" : 53744,
            "byteOffset" : 268720,
            "target" : 34962
        },
        {
            "buffer" : 0,
            "byteLength" : 53744,
            "byteOffset" : 322464,
            "target" : 34962
        },
        {
            "buffer" : 0,
            "byteLength" : 53744,
            "byteOffset" : 376208,
            "target" : 34962
        },
        {
            "buffer" : 0,
            "byteLength" : 73476,
            "byteOffset" : 429952,
            "target" : 34963
        },
        {
            "buffer" : 0,
            "byteLength" : 34428,
            "byteOffset" : 503428,
            "target" : 34962
        },
        {
            "buffer" : 0,
            "byteLength" : 34428,
            "byteOffset" : 537856,
            "target" : 34962
        },
        {
            "buffer" : 0,
            "byteLength" : 22952,
            "byteOffset" : 572284,
            "target" : 34962
        },
        {
            "buffer" : 0,
            "byteLength" : 22952,
            "byteOffset" : 595236,
            "target" : 34962
        },
        {
            "buffer" : 0,
            "byteLength" : 22952,
            "byteOffset" : 618188,
            "target" : 34962
        },
        {
            "buffer" : 0,
            "byteLength" : 22952,
            "byteOffset" : 641140,
            "target" : 34962
        },
        {
            "buffer" : 0,
            "byteLength" : 22952,
            "byteOffset" : 664092,
            "target" : 34962
        },
        {
            "buffer" : 0,
            "byteLength" : 30288,
            "byteOffset" : 687044,
            "target" : 34963
        },
        {
            "buffer" : 0,
            "byteLength" : 62124,
            "byteOffset" : 717332,
            "target" : 34962
        },
        {
            "buffer" : 0,
            "byteLength" : 62124,
            "byteOffset" : 779456,
            "target" : 34962
        },
        {
            "buffer" : 0,
            "byteLength" : 41416,
            "byteOffset" : 841580,
            "target" : 34962
        },
        {
            "buffer" : 0,
            "byteLength" : 41416,
            "byteOffset" : 882996,
            "target" : 34962
        },
        {
            "buffer" : 0,
            "byteLength" : 41416,
            "byteOffset" : 924412,
            "target" : 34962
        },
        {
            "buffer" : 0,
            "byteLength" : 41416,
            "byteOffset" : 965828,
            "target" : 34962
        },
        {
            "buffer" : 0,
            "byteLength" : 41416,
            "byteOffset" : 1007244,
            "target" : 34962
        },
        {
            "buffer" : 0,
            "byteLength" : 54444,
            "byteOffset" : 1048660,
            "target" : 34963
        }
    ],
    "buffers" : [
        {
            "byteLength" : 1103104,
            "uri" : "data:application/octet-stream;base64,"
        }
    ]
}
