{
    "asset" : {
        "generator" : "Khronos glTF Blender I/O v3.3.32",
        "version" : "2.0"
    },
    "extensionsUsed" : [
        "KHR_materials_emissive_strength"
    ],
    "scene" : 0,
    "scenes" : [
        {
            "name" : "Scene",
            "nodes" : [
                0,
                1,
                2,
                3
            ]
        }
    ],
    "nodes" : [
        {
            "mesh" : 0,
            "name" : "strap",
            "rotation" : [
                0,
                0,
                -0.11534438282251358,
                0.9933256506919861
            ],
            "scale" : [
                0.40283069014549255,
                0.5213092565536499,
                1.8839397430419922
            ],
            "translation" : [
                -0.8405215740203857,
                -3.898038864135742,
                -0.006347212940454483
            ]
        },
        {
            "mesh" : 1,
            "name" : "watch",
            "scale" : [
                1,
                2.480809211730957,
                2.7341012954711914
            ],
            "translation" : [
                0,
                -0.7409948110580444,
                0.008963100612163544
            ]
        },
        {
            "mesh" : 2,
            "name" : "screen.001",
            "rotation" : [
                0,
                0,
                -0.7071066498756409,
                0.70710688829422
            ],
            "scale" : [
                1.1729724407196045,
                1,
                1.7886086702346802
            ],
            "translation" : [
                0.7569156885147095,
                -0.656470775604248,
                -0.0020473897457122803
            ]
        },
        {
            "mesh" : 3,
            "name" : "screen",
            "rotation" : [
                0,
                0,
                -0.7071066498756409,
                0.70710688829422
            ],
            "scale" : [
                1.1729724407196045,
                1,
                1.7886086702346802
            ],
            "translation" : [
                0.7293200492858887,
                -0.656470775604248,
                -0.0020473897457122803
            ]
        }
    ],
    "animations" : [
        {
            "channels" : [
                {
                    "sampler" : 0,
                    "target" : {
                        "node" : 3,
                        "path" : "translation"
                    }
                }
            ],
            "name" : "screenAction",
            "samplers" : [
                {
                    "input" : 11,
                    "interpolation" : "LINEAR",
                    "output" : 12
                }
            ]
        }
    ],
    "materials" : [
        {
            "doubleSided" : true,
            "name" : "strap.001",
            "pbrMetallicRoughness" : {
                "baseColorFactor" : [
                    0.800000011920929,
                    0.800000011920929,
                    0.800000011920929,
                    1
                ],
                "roughnessFactor" : 0.5
            }
        },
        {
            "doubleSided" : true,
            "name" : "watch.001",
            "pbrMetallicRoughness" : {
                "baseColorFactor" : [
                    0.800000011920929,
                    0.800000011920929,
                    0.800000011920929,
                    1
                ],
                "roughnessFactor" : 0.5
            }
        },
        {
            "doubleSided" : true,
            "emissiveFactor" : [
                1,
                1,
                1
            ],
            "extensions" : {
                "KHR_materials_emissive_strength" : {
                    "emissiveStrength" : 1.600000023841858
                }
            },
            "name" : "screen with emmision.001",
            "pbrMetallicRoughness" : {
                "baseColorFactor" : [
                    0,
                    0,
                    0,
                    1
                ]
            }
        },
        {
            "doubleSided" : true,
            "name" : "screen.001",
            "pbrMetallicRoughness" : {
                "baseColorFactor" : [
                    0.800000011920929,
                    0.800000011920929,
                    0.800000011920929,
                    1
                ],
                "metallicFactor" : 0,
                "roughnessFactor" : 0.5
            }
        }
    ],
    "meshes" : [
        {
            "name" : "Cube.003",
            "primitives" : [
                {
                    "attributes" : {
                        "POSITION" : 0,
                        "NORMAL" : 1
                    },
                    "indices" : 2,
                    "material" : 0
                }
            ]
        },
        {
            "name" : "Cube.004",
            "primitives" : [
                {
                    "attributes" : {
                        "POSITION" : 3,
                        "NORMAL" : 4
                    },
                    "indices" : 5,
                    "material" : 1
                }
            ]
        },
        {
            "name" : "Plane.002",
            "primitives" : [
                {
                    "attributes" : {
                        "POSITION" : 6,
                        "NORMAL" : 7
                    },
                    "indices" : 8,
                    "material" : 2
                }
            ]
        },
        {
            "name" : "Plane.003",
            "primitives" : [
                {
                    "attributes" : {
                        "POSITION" : 9,
                        "NORMAL" : 10
                    },
                    "indices" : 8,
                    "material" : 3
                }
            ]
        }
    ],
    "accessors" : [
        {
            "bufferView" : 0,
            "componentType" : 5126,
            "count" : 3406,
            "max" : [
                2.0651988983154297,
                15.533473014831543,
                1.1749991178512573
            ],
            "min" : [
                -20.415870666503906,
                -5.401707649230957,
                -1.1847401857376099
            ],
            "type" : "VEC3"
        },
        {
            "bufferView" : 1,
            "componentType" : 5126,
            "count" : 3406,
            "type" : "VEC3"
        },
        {
            "bufferView" : 2,
            "componentType" : 5123,
            "count" : 19248,
            "type" : "SCALAR"
        },
        {
            "bufferView" : 3,
            "componentType" : 5126,
            "count" : 3869,
            "max" : [
                1.1455885171890259,
                1.497610092163086,
                1.1867903470993042
            ],
            "min" : [
                -0.5851500034332275,
                -1.497610092163086,
                -1.186792254447937
            ],
            "type" : "VEC3"
        },
        {
            "bufferView" : 4,
            "componentType" : 5126,
            "count" : 3869,
            "type" : "VEC3"
        },
        {
            "bufferView" : 5,
            "componentType" : 5123,
            "count" : 20232,
            "type" : "SCALAR"
        },
        {
            "bufferView" : 6,
            "componentType" : 5126,
            "count" : 4,
            "max" : [
                0.89237380027771,
                -2.829540690640897e-08,
                0.8976232409477234
            ],
            "min" : [
                -0.8401567935943604,
                -2.829540690640897e-08,
                -0.8475093245506287
            ],
            "type" : "VEC3"
        },
        {
            "bufferView" : 7,
            "componentType" : 5126,
            "count" : 4,
            "type" : "VEC3"
        },
        {
            "bufferView" : 8,
            "componentType" : 5123,
            "count" : 6,
            "type" : "SCALAR"
        },
        {
            "bufferView" : 9,
            "componentType" : 5126,
            "count" : 4,
            "max" : [
                0.89237380027771,
                -2.829540690640897e-08,
                0.8976232409477234
            ],
            "min" : [
                -0.8401567935943604,
                -2.829540690640897e-08,
                -0.8475093245506287
            ],
            "type" : "VEC3"
        },
        {
            "bufferView" : 10,
            "componentType" : 5126,
            "count" : 4,
            "type" : "VEC3"
        },
        {
            "bufferView" : 11,
            "componentType" : 5126,
            "count" : 86,
            "max" : [
                3.625
            ],
            "min" : [
                0.08333333333333333
            ],
            "type" : "SCALAR"
        },
        {
            "bufferView" : 12,
            "componentType" : 5126,
            "count" : 86,
            "type" : "VEC3"
        }
    ],
    "bufferViews" : [
        {
            "buffer" : 0,
            "byteLength" : 40872,
            "byteOffset" : 0,
            "target" : 34962
        },
        {
            "buffer" : 0,
            "byteLength" : 40872,
            "byteOffset" : 40872,
            "target" : 34962
        },
        {
            "buffer" : 0,
            "byteLength" : 38496,
            "byteOffset" : 81744,
            "target" : 34963
        },
        {
            "buffer" : 0,
            "byteLength" : 46428,
            "byteOffset" : 120240,
            "target" : 34962
        },
        {
            "buffer" : 0,
            "byteLength" : 46428,
            "byteOffset" : 166668,
            "target" : 34962
        },
        {
            "buffer" : 0,
            "byteLength" : 40464,
            "byteOffset" : 213096,
            "target" : 34963
        },
        {
            "buffer" : 0,
            "byteLength" : 48,
            "byteOffset" : 253560,
            "target" : 34962
        },
        {
            "buffer" : 0,
            "byteLength" : 48,
            "byteOffset" : 253608,
            "target" : 34962
        },
        {
            "buffer" : 0,
            "byteLength" : 12,
            "byteOffset" : 253656,
            "target" : 34963
        },
        {
            "buffer" : 0,
            "byteLength" : 48,
            "byteOffset" : 253668,
            "target" : 34962
        },
        {
            "buffer" : 0,
            "byteLength" : 48,
            "byteOffset" : 253716,
            "target" : 34962
        },
        {
            "buffer" : 0,
            "byteLength" : 344,
            "byteOffset" : 253764
        },
        {
            "buffer" : 0,
            "byteLength" : 1032,
            "byteOffset" : 254108
        }
    ],
    "buffers" : [
        {
            "byteLength" : 255140,
            "uri" : "data:application/octet-stream;base64,"
        }
    ]
}
