{
    "asset" : {
        "generator" : "Khronos glTF Blender I/O v3.3.32",
        "version" : "2.0"
    },
    "extensionsUsed" : [
        "KHR_texture_transform"
    ],
    "extensionsRequired" : [
        "KHR_texture_transform"
    ],
    "scene" : 0,
    "scenes" : [
        {
            "name" : "Scene",
            "nodes" : [
                0,
                1,
                2,
                3
            ]
        }
    ],
    "nodes" : [
        {
            "mesh" : 0,
            "name" : "kumas",
            "rotation" : [
                0.48674020171165466,
                0.5129171013832092,
                -0.5129172801971436,
                0.4867401123046875
            ],
            "scale" : [
                0.01000000350177288,
                0.01000000350177288,
                0.010000004433095455
            ],
            "translation" : [
                0.33589601516723633,
                0.14681895077228546,
                -0.0290694423019886
            ]
        },
        {
            "mesh" : 1,
            "name" : "KOL",
            "rotation" : [
                0.4867402911186218,
                0.5129169821739197,
                -0.5129172801971436,
                0.4867401719093323
            ],
            "scale" : [
                0.010000004433095455,
                0.010000004433095455,
                0.01000000536441803
            ],
            "translation" : [
                0.33589595556259155,
                0.14681895077228546,
                -0.029069406911730766
            ]
        },
        {
            "mesh" : 2,
            "name" : "dugme",
            "rotation" : [
                0.4867402911186218,
                0.5129169821739197,
                -0.5129172801971436,
                0.4867401719093323
            ],
            "scale" : [
                0.010000004433095455,
                0.010000004433095455,
                0.01000000536441803
            ],
            "translation" : [
                0.33589595556259155,
                0.14681895077228546,
                -0.029069406911730766
            ]
        },
        {
            "mesh" : 3,
            "name" : "Cube",
            "scale" : [
                3.8499999046325684,
                3.950000762939453,
                3.1399998664855957
            ],
            "translation" : [
                0.10268184542655945,
                0.5502036809921265,
                -0.29235196113586426
            ]
        }
    ],
    "animations" : [
        {
            "channels" : [
                {
                    "sampler" : 0,
                    "target" : {
                        "node" : 0,
                        "path" : "translation"
                    }
                },
                {
                    "sampler" : 1,
                    "target" : {
                        "node" : 0,
                        "path" : "rotation"
                    }
                },
                {
                    "sampler" : 2,
                    "target" : {
                        "node" : 0,
                        "path" : "scale"
                    }
                }
            ],
            "name" : "kumas|Take 001|BaseLayer",
            "samplers" : [
                {
                    "input" : 16,
                    "interpolation" : "STEP",
                    "output" : 17
                },
                {
                    "input" : 16,
                    "interpolation" : "STEP",
                    "output" : 18
                },
                {
                    "input" : 16,
                    "interpolation" : "STEP",
                    "output" : 19
                }
            ]
        }
    ],
    "materials" : [
        {
            "doubleSided" : true,
            "name" : "Material #29",
            "pbrMetallicRoughness" : {
                "baseColorTexture" : {
                    "extensions" : {
                        "KHR_texture_transform" : {
                            "offset" : [
                                10,
                                -14
                            ],
                            "scale" : [
                                5,
                                5
                            ]
                        }
                    },
                    "index" : 0
                },
                "metallicFactor" : 0,
                "roughnessFactor" : 0.5527864098548889
            }
        },
        {
            "doubleSided" : true,
            "name" : "Material #30",
            "pbrMetallicRoughness" : {
                "baseColorTexture" : {
                    "index" : 1
                },
                "metallicFactor" : 0,
                "roughnessFactor" : 0.5527864098548889
            }
        },
        {
            "doubleSided" : true,
            "name" : "Material #28",
            "pbrMetallicRoughness" : {
                "baseColorTexture" : {
                    "index" : 2
                },
                "metallicFactor" : 0,
                "roughnessFactor" : 0.5527864098548889
            }
        }
    ],
    "meshes" : [
        {
            "name" : "Mesh",
            "primitives" : [
                {
                    "attributes" : {
                        "POSITION" : 0,
                        "NORMAL" : 1,
                        "TEXCOORD_0" : 2
                    },
                    "indices" : 3,
                    "material" : 0
                }
            ]
        },
        {
            "name" : "Mesh.001",
            "primitives" : [
                {
                    "attributes" : {
                        "POSITION" : 4,
                        "NORMAL" : 5,
                        "TEXCOORD_0" : 6
                    },
                    "indices" : 7,
                    "material" : 1
                }
            ]
        },
        {
            "name" : "Mesh.002",
            "primitives" : [
                {
                    "attributes" : {
                        "POSITION" : 8,
                        "NORMAL" : 9,
                        "TEXCOORD_0" : 10
                    },
                    "indices" : 11,
                    "material" : 2
                }
            ]
        },
        {
            "name" : "Cube.001",
            "primitives" : [
                {
                    "attributes" : {
                        "POSITION" : 12,
                        "NORMAL" : 13,
                        "TEXCOORD_0" : 14
                    },
                    "indices" : 15
                }
            ]
        }
    ],
    "textures" : [
        {
            "sampler" : 0,
            "source" : 0
        },
        {
            "sampler" : 0,
            "source" : 1
        },
        {
            "sampler" : 0,
            "source" : 2
        }
    ],
    "images" : [
        {
            "bufferView" : 4,
            "mimeType" : "image/jpeg",
            "name" : "PairOfArmchairsFabricDif"
        },
        {
            "bufferView" : 9,
            "mimeType" : "image/jpeg",
            "name" : "brown"
        },
        {
            "bufferView" : 14,
            "mimeType" : "image/jpeg",
            "name" : "white"
        }
    ],
    "accessors" : [
        {
            "bufferView" : 0,
            "componentType" : 5126,
            "count" : 8519,
            "max" : [
                70.26921081542969,
                -0.004616379737854004,
                0.1483055055141449
            ],
            "min" : [
                -15.1484375,
                -64.11493682861328,
                -62.105323791503906
            ],
            "type" : "VEC3"
        },
        {
            "bufferView" : 1,
            "componentType" : 5126,
            "count" : 8519,
            "type" : "VEC3"
        },
        {
            "bufferView" : 2,
            "componentType" : 5126,
            "count" : 8519,
            "type" : "VEC2"
        },
        {
            "bufferView" : 3,
            "componentType" : 5123,
            "count" : 43248,
            "type" : "SCALAR"
        },
        {
            "bufferView" : 5,
            "componentType" : 5126,
            "count" : 29314,
            "max" : [
                64.38970947265625,
                5.218384265899658,
                14.513416290283203
            ],
            "min" : [
                -10.438725471496582,
                -66.74282836914062,
                -42.501407623291016
            ],
            "type" : "VEC3"
        },
        {
            "bufferView" : 6,
            "componentType" : 5126,
            "count" : 29314,
            "type" : "VEC3"
        },
        {
            "bufferView" : 7,
            "componentType" : 5126,
            "count" : 29314,
            "type" : "VEC2"
        },
        {
            "bufferView" : 8,
            "componentType" : 5123,
            "count" : 95520,
            "type" : "SCALAR"
        },
        {
            "bufferView" : 10,
            "componentType" : 5126,
            "count" : 7358,
            "max" : [
                62.749664306640625,
                3.025076150894165,
                14.513418197631836
            ],
            "min" : [
                -5.3995819091796875,
                -66.44950103759766,
                -33.00868225097656
            ],
            "type" : "VEC3"
        },
        {
            "bufferView" : 11,
            "componentType" : 5126,
            "count" : 7358,
            "type" : "VEC3"
        },
        {
            "bufferView" : 12,
            "componentType" : 5126,
            "count" : 7358,
            "type" : "VEC2"
        },
        {
            "bufferView" : 13,
            "componentType" : 5123,
            "count" : 28080,
            "type" : "SCALAR"
        },
        {
            "bufferView" : 15,
            "componentType" : 5126,
            "count" : 24,
            "max" : [
                0.018220245838165283,
                0.08020368218421936,
                0.012483716011047363
            ],
            "min" : [
                -0.018220245838165283,
                -0.08020368218421936,
                -0.012483716011047363
            ],
            "type" : "VEC3"
        },
        {
            "bufferView" : 16,
            "componentType" : 5126,
            "count" : 24,
            "type" : "VEC3"
        },
        {
            "bufferView" : 17,
            "componentType" : 5126,
            "count" : 24,
            "type" : "VEC2"
        },
        {
            "bufferView" : 18,
            "componentType" : 5123,
            "count" : 36,
            "type" : "SCALAR"
        },
        {
            "bufferView" : 19,
            "componentType" : 5126,
            "count" : 1,
            "max" : [
                0.033333336313565574
            ],
            "min" : [
                0.033333336313565574
            ],
            "type" : "SCALAR"
        },
        {
            "bufferView" : 20,
            "componentType" : 5126,
            "count" : 1,
            "type" : "VEC3"
        },
        {
            "bufferView" : 21,
            "componentType" : 5126,
            "count" : 1,
            "type" : "VEC4"
        },
        {
            "bufferView" : 22,
            "componentType" : 5126,
            "count" : 1,
            "type" : "VEC3"
        }
    ],
    "bufferViews" : [
        {
            "buffer" : 0,
            "byteLength" : 102228,
            "byteOffset" : 0,
            "target" : 34962
        },
        {
            "buffer" : 0,
            "byteLength" : 102228,
            "byteOffset" : 102228,
            "target" : 34962
        },
        {
            "buffer" : 0,
            "byteLength" : 68152,
            "byteOffset" : 204456,
            "target" : 34962
        },
        {
            "buffer" : 0,
            "byteLength" : 86496,
            "byteOffset" : 272608,
            "target" : 34963
        },
        {
            "buffer" : 0,
            "byteLength" : 234127,
            "byteOffset" : 359104
        },
        {
            "buffer" : 0,
            "byteLength" : 351768,
            "byteOffset" : 593232,
            "target" : 34962
        },
        {
            "buffer" : 0,
            "byteLength" : 351768,
            "byteOffset" : 945000,
            "target" : 34962
        },
        {
            "buffer" : 0,
            "byteLength" : 234512,
            "byteOffset" : 1296768,
            "target" : 34962
        },
        {
            "buffer" : 0,
            "byteLength" : 191040,
            "byteOffset" : 1531280,
            "target" : 34963
        },
        {
            "buffer" : 0,
            "byteLength" : 654271,
            "byteOffset" : 1722320
        },
        {
            "buffer" : 0,
            "byteLength" : 88296,
            "byteOffset" : 2376592,
            "target" : 34962
        },
        {
            "buffer" : 0,
            "byteLength" : 88296,
            "byteOffset" : 2464888,
            "target" : 34962
        },
        {
            "buffer" : 0,
            "byteLength" : 58864,
            "byteOffset" : 2553184,
            "target" : 34962
        },
        {
            "buffer" : 0,
            "byteLength" : 56160,
            "byteOffset" : 2612048,
            "target" : 34963
        },
        {
            "buffer" : 0,
            "byteLength" : 276729,
            "byteOffset" : 2668208
        },
        {
            "buffer" : 0,
            "byteLength" : 288,
            "byteOffset" : 2944940,
            "target" : 34962
        },
        {
            "buffer" : 0,
            "byteLength" : 288,
            "byteOffset" : 2945228,
            "target" : 34962
        },
        {
            "buffer" : 0,
            "byteLength" : 192,
            "byteOffset" : 2945516,
            "target" : 34962
        },
        {
            "buffer" : 0,
            "byteLength" : 72,
            "byteOffset" : 2945708,
            "target" : 34963
        },
        {
            "buffer" : 0,
            "byteLength" : 4,
            "byteOffset" : 2945780
        },
        {
            "buffer" : 0,
            "byteLength" : 12,
            "byteOffset" : 2945784
        },
        {
            "buffer" : 0,
            "byteLength" : 16,
            "byteOffset" : 2945796
        },
        {
            "buffer" : 0,
            "byteLength" : 12,
            "byteOffset" : 2945812
        }
    ],
    "samplers" : [
        {
            "magFilter" : 9729,
            "minFilter" : 9987
        }
    ],
    "buffers" : [
        {
            "byteLength" : 2945824,
            "uri" : "data:application/octet-stream;base64,"
        }
    ]
}
